<?xml version="1.0" encoding="UTF-8"?>
<!DOCTYPE svg PUBLIC "-//W3C//DTD SVG 1.1//EN" "http://www.w3.org/Graphics/SVG/1.1/DTD/svg11.dtd">
<svg xmlns="http://www.w3.org/2000/svg" version="1.1" width="50px" height="51px" style="shape-rendering:geometricPrecision; text-rendering:geometricPrecision; image-rendering:optimizeQuality; fill-rule:evenodd; clip-rule:evenodd" xmlns:xlink="http://www.w3.org/1999/xlink">
<g><path style="opacity:0.976" fill="#d6f7f8" d="M 21.5,-0.5 C 23.5,-0.5 25.5,-0.5 27.5,-0.5C 38.453,1.64302 45.7863,7.97636 49.5,18.5C 49.5,23.1667 49.5,27.8333 49.5,32.5C 45.7454,41.2555 39.412,47.2555 30.5,50.5C 26.5,50.5 22.5,50.5 18.5,50.5C 9.58798,47.2555 3.25465,41.2555 -0.5,32.5C -0.5,27.8333 -0.5,23.1667 -0.5,18.5C 3.15495,7.84121 10.4883,1.50787 21.5,-0.5 Z"/></g>
<g><path style="opacity:1" fill="#183962" d="M 27.5,30.5 C 25.0504,30.702 22.717,30.3686 20.5,29.5C 15.4796,22.9222 16.8129,18.2555 24.5,15.5C 28.5,16.1667 30.8333,18.5 31.5,22.5C 30.5819,25.4057 29.2485,28.0724 27.5,30.5 Z"/></g>
<g><path style="opacity:1" fill="#a5c7d2" d="M 22.5,18.5 C 23.552,18.3505 24.552,18.5172 25.5,19C 23.714,19.7845 22.214,20.9512 21,22.5C 20.516,20.8067 21.016,19.4733 22.5,18.5 Z"/></g>
<g><path style="opacity:1" fill="#99bbc9" d="M 20.5,29.5 C 22.717,30.3686 25.0504,30.702 27.5,30.5C 27.5,31.1667 27.5,31.8333 27.5,32.5C 25.2646,32.2053 23.2646,32.5386 21.5,33.5C 20.5655,32.4324 20.2322,31.099 20.5,29.5 Z"/></g>
<g><path style="opacity:1" fill="#0d325c" d="M 27.5,32.5 C 27.516,34.4841 26.516,35.4841 24.5,35.5C 22.9623,35.5466 21.9623,34.8799 21.5,33.5C 23.2646,32.5386 25.2646,32.2053 27.5,32.5 Z"/></g>
</svg>
